<svg width="32" height="31" viewBox="0 0 32 31" fill="none" xmlns="http://www.w3.org/2000/svg"><g filter="url(#filter0_d)"><circle cx="16" cy="11.5" r="8.5" fill="#858585"/><circle cx="16" cy="11.5" r="10" stroke="#fff" stroke-width="3"/></g><path d="M14.221 9.433a4.554 4.554 0 00-1.09.653V8.198a2.85 2.85 0 012.848-2.847h.044a2.85 2.85 0 012.846 2.847v1.888a4.552 4.552 0 00-1.413-.776V8.198c0-.79-.643-1.434-1.435-1.434h-.044c-.79 0-1.434.643-1.434 1.434v1.114a4.057 4.057 0 00-.322.121z" fill="#fff"/><path d="M20.005 13.644a4.005 4.005 0 11-8.01 0 4.005 4.005 0 018.01 0zm-2.973-.808a1.032 1.032 0 10-1.58.9.28.28 0 01.126.297l-.307 1.454a.142.142 0 00.138.17h1.182a.14.14 0 00.138-.17l-.306-1.454a.284.284 0 01.125-.298 1.03 1.03 0 00.484-.899z" fill="#fff"/><defs><filter id="filter0_d" x=".5" y="0" width="31" height="31" filterUnits="userSpaceOnUse" color-interpolation-filters="sRGB"><feFlood flood-opacity="0" result="BackgroundImageFix"/><feColorMatrix in="SourceAlpha" values="0 0 0 0 0 0 0 0 0 0 0 0 0 0 0 0 0 0 127 0"/><feOffset dy="4"/><feGaussianBlur stdDeviation="2"/><feColorMatrix values="0 0 0 0 1 0 0 0 0 1 0 0 0 0 1 0 0 0 0.8 0"/><feBlend mode="overlay" in2="BackgroundImageFix" result="effect1_dropShadow"/><feBlend in="SourceGraphic" in2="effect1_dropShadow" result="shape"/></filter></defs></svg>