<svg width="23" height="23" viewBox="0 0 23 23" fill="none" xmlns="http://www.w3.org/2000/svg"><path d="M11.5 21.5c5.523 0 10-4.477 10-10s-4.477-10-10-10-10 4.477-10 10 4.477 10 10 10z" fill="#858585" stroke="#fff" stroke-width="3"/><path d="M9.721 9.433a4.552 4.552 0 00-1.09.653V8.198a2.85 2.85 0 012.848-2.847h.044a2.85 2.85 0 012.846 2.847v1.888a4.553 4.553 0 00-1.413-.776V8.198c0-.79-.643-1.434-1.435-1.434h-.044c-.79 0-1.434.643-1.434 1.434v1.114a4.058 4.058 0 00-.322.121z" fill="#fff"/><path d="M15.505 13.644a4.005 4.005 0 11-8.01 0 4.005 4.005 0 018.01 0zm-2.974-.808a1.032 1.032 0 10-1.58.9.28.28 0 01.127.297l-.307 1.454a.142.142 0 00.138.17h1.182a.14.14 0 00.138-.17l-.306-1.454a.284.284 0 01.125-.298 1.03 1.03 0 00.483-.899z" fill="#fff"/></svg>