<svg width="1145" height="191" viewBox="0 0 1145 191" fill="none" xmlns="http://www.w3.org/2000/svg"><path d="M1112.5 1.856c-7.3 3.3-13.4 12.6-13.4 20.6 0 8 6.1 17.3 13.4 20.6 4.8 2.2 13.3 2.5 17.9.6 8.8-3.7 14-11.7 14-21.2s-5.2-17.5-14-21.2c-4.6-1.9-13.1-1.6-17.9.6zm17.2 4c2.3 1 5.4 3.6 7 5.7 2.6 3.3 2.9 4.6 2.9 10.9 0 6.3-.3 7.6-2.9 10.9-5.3 7-14.3 9.3-22.1 5.7-6.2-2.8-11.5-10.4-11.5-16.6 0-3 2.4-8.8 4.7-11.6 5.5-6.4 14.3-8.5 21.9-5z" fill="#fff"/><path d="M1110.1 23.456c0 10.8.1 11.5 2 11.5 1.7 0 2-.7 2-4.5v-4.5h4.4c4 0 4.6.4 7.7 4.5 2.6 3.4 4.1 4.4 6.2 4.5h2.9l-3.6-4.2-3.6-4.2 3-1.2c2.7-1.2 3-1.7 3-6.2 0-2.6-.5-5.3-1.2-6-.8-.8-4.9-1.2-12-1.2h-10.8v11.5zm19.8-4.8c-.3 2.8-.4 2.8-8 3.1l-7.8.3v-6.1h16.1l-.3 2.7zM32.1 76.156c-13.5 24.3-26.2 47.2-28.3 51l-3.8 6.9 9.8-.3 9.7-.3 6.6-12 6.7-12 32.5-.3 32.6-.2 6.8 12.5 6.9 12.5h9.3c5 0 9.2-.3 9.2-.7 0-.4-12.5-23.3-27.7-51l-27.8-50.2-9-.1h-9l-24.5 44.2zm45.3-4.5c5.9 10.5 10.7 19.4 10.7 19.7 0 .3-10.3.6-22.9.6h-23l9.1-16.3c13.2-23.7 13.9-25 14.7-24 .4.4 5.6 9.4 11.4 20zm62.9 5c.3 43 .4 45 2.4 48.7 1.2 2.5 3.5 4.8 6 6 3.8 2 5.4 2.1 46.4 2.1 40.8 0 42.6-.1 46-2 2.1-1.2 4.4-3.9 5.8-6.5 2.2-4.4 2.2-4.8 2.2-48.7v-44.3h-18v85h-73v-85H140l.3 44.7zm121.8-36.2v8.5h41v85h18v-85h41v-17h-100v8.5zm123.7-7.3c-5.5 1.5-9.3 5.8-10.7 12.1-.8 3.5-1 16.6-.8 40.7.3 33.6.4 35.7 2.4 39.4 1.2 2.5 3.5 4.8 6 6 3.8 2 5.4 2.1 47.9 2.1 42.3 0 44.1-.1 47.5-2 2.1-1.2 4.4-3.9 5.8-6.5 2.2-4.4 2.2-5 2.2-42s0-37.6-2.2-42c-1.4-2.6-3.7-5.3-5.8-6.5-3.3-1.9-5.3-2-46-2.2-26.4-.1-43.9.3-46.3.9zm82.3 49.8v34h-76v-68h76v34z" fill="#fff"/><path d="M506.1 82.956v51h18v-44h50v-16h-50v-26h77v-16h-95v51zm108-.1v51.1h18v-42h34.5l16 21 16 21h21.7l-6.8-8.8c-3.8-4.8-11.1-14.1-16.2-20.7l-9.4-12 7.8-.7c9.2-.9 12.2-2 15.7-5.6 3.7-3.9 4.7-9.1 4.7-24.2 0-14.7-1-20.2-4.3-23.8-5.3-5.8-4.4-5.7-52.9-6l-44.8-.3v51zm81.9-32.5c1.9 1.7 2.1 3 2.1 11.6 0 14.4 2.5 13.4-35.1 13.8l-30.9.3v-28.2l30.9.3c28.7.3 31 .4 33 2.2zm58.9 32c-15.3 27.7-27.8 50.6-27.8 51 0 .3 4 .6 8.9.6h9l7.1-13 7.1-13h64.5l7 12.7 7 12.8 9.3.3c7.3.2 9.2 0 8.8-1-.3-.7-12.9-23.6-28-50.8l-27.5-49.5-8.8-.2-8.9-.3-27.7 50.4zm49.5-9.4l10.3 18.5-11.2.3c-6.2.1-16.7.1-23.3 0l-12-.3 11.6-20.9c11-19.8 11.7-20.7 12.9-18.5.7 1.3 6 10.7 11.7 20.9zm61.7 10v51h18l.2-41.5.3-41.6 34.5 41.6 34.5 41.5h20.5v-102h-18l.1 35.7c0 19.7.4 38 .9 40.8.4 2.7.7 5.1.6 5.2-.1.2-2-2.3-4.2-5.5-2.2-3.1-17.1-21.6-33.3-41l-29.2-35.2h-24.9v51zm121-43v8h41v86h18v-86h41v-16h-100v8z" fill="#DC492B"/><path d="M572.1 174.956v16h15.8c12.1 0 16.3-.3 17.8-1.4 1.7-1.3 1.9-2.7 1.9-14.6 0-11.9-.2-13.3-1.9-14.6-1.5-1.1-5.7-1.4-17.8-1.4h-15.8v16zm29.5 0v10.5l-11.7.3-11.8.3v-22.2l11.8.3 11.7.3v10.5zm10.5 0v16h32v-5h-26v-9h8c7.9 0 8 0 8-2.5s-.1-2.5-8-2.5h-8v-8h26v-5h-32v16zm38.5-14.6c-1.2.9-2 3-2.3 6.8-.4 4.7-.1 5.9 1.7 7.7 1.9 1.9 3.2 2.1 13.1 2.1h11v9h-10c-9.3 0-10-.1-10-2 0-1.6-.7-2-3.1-2-3 0-3.1.1-2.5 3.2 1 5.2 2.6 5.8 16.1 5.8 14.7 0 15.5-.5 15.5-9.6 0-3.2-.5-6.6-1-7.4-.7-1.1-3.7-1.6-12.7-2l-11.8-.5-.3-3.8-.3-3.7h9.5c8.9 0 9.6.1 9.6 2 0 1.6.7 2 3 2 2.7 0 3-.3 3-2.9 0-5-2.8-6.1-15.5-6.1-7.8 0-11.7.4-13 1.4zm35.5 14.6v16h6v-32h-6v16zm12.4-14.6c-1.7 1.3-1.9 2.7-1.9 14.6 0 16.7-.8 16 17.5 16 17.3 0 17.3 0 17.8-10.9l.4-8.1h-9.6c-9.6 0-9.6 0-9.6 2.5 0 2.4.2 2.5 6.5 2.5h6.5v9h-24v-22h12c11.3 0 12 .1 12 2 0 1.6.7 2 3.1 2 3 0 3.1-.1 2.5-3.3-.3-1.7-1.4-3.8-2.3-4.5-2.5-1.8-28.3-1.7-30.9.2zm37.6 14.6v16h5.9l.3-12.7.3-12.8 10.8 12.8c10 11.7 11.1 12.7 14.3 12.7h3.4v-32h-5.9l-.3 12-.3 12-10-12c-9.9-11.7-10.1-11.9-14.2-12h-4.3v16zm55-15.4c0 .3 3.6 4.8 8 10l8 9.5v6c0 5.9 0 5.9 3 5.9h3v-12.1l8.2-9.7 8.1-9.7-3.3-.3c-3-.3-3.9.2-6.9 4-2 2.3-4.9 5.8-6.6 7.6l-3 3.2-6-7.5c-5.2-6.6-6.4-7.5-9.2-7.5-1.8 0-3.3.2-3.3.6zm42.4.8c-1.7 1.3-1.9 2.7-1.9 14.6 0 16.7-.8 16 17.5 16s17.5.7 17.5-16c0-11.9-.2-13.3-1.9-14.6-2.8-2-28.4-2-31.2 0zm27.6 14.6v11h-24v-22h24v11zm10.2-1.4c.3 13.1.5 14.7 2.2 16 1.5 1 5.4 1.4 15.6 1.4 17.8 0 17 .9 17-17.8v-14.2h-6v27h-23v-27H871l.3 14.6zm39.8 1.4v16h6v-13h10.8l5.2 6.5c4.6 5.7 5.6 6.5 8.6 6.5h3.4l-5.1-6.5c-4.8-6.1-4.9-6.5-2.7-6.5 4.8 0 6.3-2.2 6.3-9.5 0-9.3-.3-9.5-18.2-9.5h-14.3v16zm26.5-6.5v4l-10.2.3-10.3.3v-9.2l10.3.3 10.2.3v4zm30.9-8.1c-1.7 1.3-1.9 2.7-1.9 14.6 0 16.7-.7 16 16.5 16 14.2 0 16-.8 16-6.8 0-2.9-.3-3.2-3-3.2-2.5 0-3 .4-3 2.5v2.5h-21v-22h21v2.5c0 2.1.5 2.5 3 2.5 2.7 0 3-.3 3-3.3 0-5.9-2-6.7-16.1-6.7-9.2 0-13 .4-14.5 1.4zm47.3 2.8c-1.4 2.4-4.4 7.7-6.7 11.8-2.3 4.1-5.3 9.4-6.7 11.7l-2.4 4.3h3c2.4 0 3.4-.7 5.2-4l2.3-4h20.5l2.3 4c1.8 3.2 2.9 4 5.1 4 1.6 0 2.7-.4 2.5-.8-.1-.5-4.1-7.7-8.8-16-7.7-13.8-8.7-15.2-11.2-15.2-2.2 0-3.2.9-5.1 4.2zm9.3 9l3.2 5.8h-7.1c-3.9 0-7.1-.3-7.1-.6 0-1.6 6.5-12.3 7.1-11.6.4.4 2.1 3.3 3.9 6.4zm17 2.8v16h6v-13h10.8l5.2 6.5c4.6 5.7 5.6 6.5 8.6 6.5h3.4l-5.1-6.5c-4.8-6.1-4.9-6.5-2.7-6.5 4.8 0 6.3-2.2 6.3-9.5 0-9.3-.3-9.5-18.2-9.5h-14.3v16zm26.5-6.5v4l-10.2.3-10.3.3v-9.2l10.3.3 10.2.3v4z" fill="#fff"/></svg>