<svg width="83" height="83" viewBox="0 0 83 83" fill="none" xmlns="http://www.w3.org/2000/svg"><g clip-path="url(#clip0)"><path d="M58.848 13.77a1.337 1.337 0 00-.506.135L38.01 23.933a1.336 1.336 0 001.182 2.396l17.441-8.602-8.409 24.776c-5.47 16.054-22.902 24.653-38.97 19.22a1.336 1.336 0 00-.858 2.53c17.464 5.905 36.413-3.44 42.358-20.892l8.409-24.775 8.6 17.437a1.336 1.336 0 102.396-1.181L60.131 14.51a1.336 1.336 0 00-1.285-.744l.002.004z" fill="#2196F3"/><path d="M70.228 35.864a1.336 1.336 0 01-2.465.162l-9.435-19.135-19.133 9.439a1.336 1.336 0 01-1.182-2.396l20.332-10.028a1.336 1.336 0 011.789.607L70.16 34.845c.156.318.18.684.067 1.019z" fill="#E74F2F"/><path d="M60.2 15.532l-9.446 27.83c-5.945 17.45-24.894 26.796-42.358 20.89a1.336 1.336 0 01.859-2.53c16.067 5.433 33.5-3.165 38.969-19.22l9.445-27.829a1.336 1.336 0 112.53.859z" fill="#E74F2F"/></g><defs><clipPath id="clip0"><path fill="#fff" transform="rotate(-71.252 43.44 30.272)" d="M0 0h64.124v64.124H0z"/></clipPath></defs></svg>